<svg width="130" height="36" viewBox="0 0 130 36" fill="none" xmlns="http://www.w3.org/2000/svg">
<path fill-rule="evenodd" clip-rule="evenodd" d="M14.2716 0.156022C17.9282 -0.3537 21.4327 0.413684 24.3751 2.04648L23.4512 3.7307C20.8487 2.28651 17.7568 1.61119 14.5301 2.06193L14.5254 2.06259L14.5207 2.06319C7.2175 3.00954 1.69495 9.55511 1.91909 16.9493L1.91914 16.9511C2.00889 20.1107 3.0851 22.9979 4.83607 25.346L5.09551 25.6939L3.47678 33.4917L10.2915 29.8075L10.7178 29.9951C12.8637 30.9394 15.2838 31.3465 17.7544 31.1206L17.7601 31.1201L17.7657 31.1197C19.4586 30.9852 21.024 30.5373 22.5134 29.8564L23.3048 31.6075C21.6402 32.3686 19.8605 32.8822 17.9217 33.0368C15.299 33.2757 12.7163 32.8835 10.3853 31.9406L3.12481 35.8657L3.11217 35.8721C2.60879 36.1252 2.10501 35.9598 1.81423 35.7454C1.50524 35.5175 1.20193 35.063 1.31654 34.4866L1.31733 34.4826L3.0482 26.1447C1.2223 23.5578 0.104638 20.4215 0.00745687 17.007C-0.245997 8.63 5.9907 1.23155 14.2716 0.156022Z" fill="#0094F5"/>
<path d="M30.4767 16.7825C31.5806 15.4433 33.0165 14.7736 34.7844 14.7736C37.8626 14.7736 39.4152 16.4898 39.4421 19.922V29.4339H36.9517V19.9087C36.9428 18.8711 36.7005 18.1039 36.2248 17.6073C35.7581 17.1106 35.0267 16.8623 34.0306 16.8623C33.2229 16.8623 32.5139 17.0751 31.9036 17.5008C31.2934 17.9265 30.8177 18.4853 30.4767 19.1771V29.4339H27.9863V9H30.4767V16.7825Z" fill="#0094F5"/>
<path d="M52.1633 29.4339C52.0197 29.1501 51.9031 28.6446 51.8133 27.9174C50.6556 29.1058 49.2736 29.7 47.6672 29.7C46.2313 29.7 45.0511 29.3009 44.1268 28.5027C43.2114 27.6956 42.7537 26.6757 42.7537 25.4429C42.7537 23.9441 43.328 22.7823 44.4768 21.9575C45.6345 21.1238 47.2588 20.7069 49.3499 20.7069H51.7729V19.5762C51.7729 18.7159 51.5127 18.033 50.9922 17.5274C50.4717 17.013 49.7044 16.7558 48.6902 16.7558C47.8018 16.7558 47.0569 16.9776 46.4556 17.421C45.8543 17.8645 45.5537 18.401 45.5537 19.0307H43.0498C43.0498 18.3123 43.3056 17.6206 43.8172 16.9554C44.3377 16.2814 45.0377 15.7492 45.9172 15.359C46.8056 14.9688 47.7793 14.7736 48.8383 14.7736C50.5165 14.7736 51.8313 15.1905 52.7826 16.0242C53.7339 16.849 54.2274 17.9886 54.2633 19.4431V26.0682C54.2633 27.3897 54.4339 28.4406 54.7749 29.2211V29.4339H52.1633ZM48.0306 27.5582C48.8114 27.5582 49.5518 27.3586 50.2518 26.9595C50.9518 26.5604 51.4588 26.0416 51.7729 25.403V22.4497H49.821C46.7697 22.4497 45.2441 23.3321 45.2441 25.097C45.2441 25.8686 45.5043 26.4717 46.0249 26.9063C46.5454 27.3409 47.214 27.5582 48.0306 27.5582Z" fill="#0094F5"/>
<path d="M57.5076 22.1038C57.5076 20.6936 57.7858 19.4254 58.3422 18.299C58.9076 17.1727 59.6884 16.3035 60.6845 15.6916C61.6897 15.0796 62.8339 14.7736 64.1172 14.7736C66.1006 14.7736 67.7025 15.4521 68.923 16.8091C70.1525 18.166 70.7672 19.9708 70.7672 22.2235V22.3965C70.7672 23.7978 70.4935 25.0571 69.9461 26.1746C69.4076 27.2832 68.6313 28.1479 67.6172 28.7688C66.6121 29.3896 65.4544 29.7 64.1441 29.7C62.1698 29.7 60.5678 29.0215 59.3384 27.6646C58.1178 26.3076 57.5076 24.5117 57.5076 22.2767V22.1038ZM60.0114 22.3965C60.0114 23.9929 60.3839 25.2744 61.1287 26.2411C61.8826 27.2078 62.8877 27.6912 64.1441 27.6912C65.4095 27.6912 66.4147 27.2034 67.1595 26.2278C67.9044 25.2434 68.2769 23.8687 68.2769 22.1038C68.2769 20.5251 67.8954 19.248 67.1326 18.2724C66.3788 17.288 65.3736 16.7958 64.1172 16.7958C62.8877 16.7958 61.8961 17.2791 61.1422 18.2458C60.3884 19.2125 60.0114 20.5961 60.0114 22.3965Z" fill="#0094F5"/>
<path d="M82.3711 25.6159C82.3711 24.9507 82.1154 24.4363 81.6038 24.0727C81.1012 23.7002 80.2173 23.3809 78.9519 23.1148C77.6955 22.8488 76.6948 22.5295 75.95 22.157C75.2141 21.7845 74.6666 21.3411 74.3076 20.8267C73.9576 20.3123 73.7826 19.7003 73.7826 18.9908C73.7826 17.8112 74.2852 16.8135 75.2903 15.9976C76.3044 15.1816 77.5968 14.7736 79.1673 14.7736C80.8186 14.7736 82.1557 15.1949 83.1788 16.0375C84.2109 16.88 84.7269 17.9576 84.7269 19.2702H82.2231C82.2231 18.5961 81.9314 18.0152 81.348 17.5274C80.7737 17.0397 80.0468 16.7958 79.1673 16.7958C78.2609 16.7958 77.5519 16.9909 77.0403 17.3811C76.5288 17.7713 76.273 18.2813 76.273 18.911C76.273 19.5052 76.5109 19.9531 76.9865 20.2546C77.4621 20.5562 78.3192 20.8444 79.5577 21.1193C80.8051 21.3943 81.8147 21.7224 82.5865 22.1038C83.3583 22.4852 83.9282 22.9463 84.2961 23.4873C84.6731 24.0195 84.8615 24.6713 84.8615 25.4429C84.8615 26.7289 84.341 27.7621 83.3 28.5426C82.2589 29.3142 80.9083 29.7 79.248 29.7C78.0814 29.7 77.0493 29.496 76.1519 29.088C75.2544 28.6801 74.5499 28.1125 74.0384 27.3852C73.5358 26.6491 73.2846 25.8553 73.2846 25.0039H75.7749C75.8198 25.8287 76.1519 26.485 76.7711 26.9728C77.3993 27.4517 78.225 27.6912 79.248 27.6912C80.1903 27.6912 80.9442 27.5049 81.5096 27.1325C82.084 26.7511 82.3711 26.2456 82.3711 25.6159Z" fill="#0094F5"/>
<path d="M88.4717 29.4339V10.0643H93.9282C95.6098 10.0643 97.0968 10.4368 98.389 11.1817C99.6812 11.9267 100.677 12.9866 101.376 14.3612C102.084 15.7359 102.443 17.3146 102.452 19.0972V20.3344C102.452 22.1614 102.097 23.7623 101.389 25.137C100.69 26.5116 99.6856 27.567 98.3757 28.3031C97.0746 29.0393 95.5567 29.4162 93.822 29.4339H88.4717ZM91.0207 12.1662V27.3453H93.7025C95.6674 27.3453 97.1941 26.7334 98.2828 25.5094C99.3803 24.2855 99.929 22.5428 99.929 20.2812V19.1504C99.929 16.951 99.4113 15.2437 98.3757 14.0287C97.349 12.8048 95.8886 12.1839 93.9946 12.1662H91.0207Z" fill="#1D1E20"/>
<path d="M108.598 29.4339H106.142V15.0397H108.598V29.4339ZM105.943 11.2217C105.943 10.8226 106.063 10.4855 106.302 10.2106C106.549 9.93567 106.912 9.7982 107.39 9.7982C107.868 9.7982 108.231 9.93567 108.479 10.2106C108.727 10.4855 108.851 10.8226 108.851 11.2217C108.851 11.6208 108.727 11.9533 108.479 12.2194C108.231 12.4855 107.868 12.6185 107.39 12.6185C106.912 12.6185 106.549 12.4855 106.302 12.2194C106.063 11.9533 105.943 11.6208 105.943 11.2217Z" fill="#1D1E20"/>
<path d="M121.41 29.4339C121.268 29.1501 121.153 28.6446 121.065 27.9174C119.923 29.1058 118.56 29.7 116.976 29.7C115.56 29.7 114.396 29.3009 113.484 28.5027C112.581 27.6956 112.13 26.6757 112.13 25.4429C112.13 23.9441 112.696 22.7823 113.829 21.9575C114.971 21.1238 116.573 20.7069 118.635 20.7069H121.025V19.5762C121.025 18.7159 120.768 18.033 120.255 17.5274C119.742 17.013 118.985 16.7558 117.985 16.7558C117.108 16.7558 116.374 16.9776 115.781 17.421C115.188 17.8645 114.891 18.401 114.891 19.0307H112.422C112.422 18.3123 112.674 17.6206 113.179 16.9554C113.692 16.2814 114.382 15.7492 115.25 15.359C116.126 14.9688 117.086 14.7736 118.131 14.7736C119.786 14.7736 121.082 15.1905 122.021 16.0242C122.959 16.849 123.446 17.9886 123.481 19.4431V26.0682C123.481 27.3897 123.649 28.4406 123.985 29.2211V29.4339H121.41ZM117.334 27.5582C118.104 27.5582 118.834 27.3586 119.525 26.9595C120.215 26.5604 120.715 26.0416 121.025 25.403V22.4497H119.1C116.091 22.4497 114.586 23.3321 114.586 25.097C114.586 25.8686 114.843 26.4717 115.356 26.9063C115.869 27.3409 116.529 27.5582 117.334 27.5582Z" fill="#1D1E20"/>
<path d="M130 29.4339H127.543V9H130V29.4339Z" fill="#1D1E20"/>
<path d="M11.7362 17.55C11.7362 18.2948 11.1291 18.9 10.382 18.9C9.63487 18.9 9.02783 18.2948 9.02783 17.55C9.02783 16.8051 9.63487 16.2 10.382 16.2C11.1291 16.2 11.7362 16.8051 11.7362 17.55Z" fill="#0094F5"/>
<path d="M16.4354 17.55C16.4354 18.2948 15.8302 18.9 15.0854 18.9C14.3405 18.9 13.7354 18.2948 13.7354 17.55C13.7354 16.8051 14.3405 16.2 15.0854 16.2C15.8767 16.2 16.4354 16.8051 16.4354 17.55Z" fill="#0094F5"/>
<path d="M21.1439 17.55C21.1439 18.2948 20.5368 18.9 19.7897 18.9C19.0426 18.9 18.4355 18.2948 18.4355 17.55C18.4355 16.8051 19.0426 16.2 19.7897 16.2C20.5368 16.2 21.1439 16.8051 21.1439 17.55Z" fill="#0094F5"/>
</svg>
